<svg xmlns="http://www.w3.org/2000/svg" viewBox="0 0 930.93 116.01"><title>logo-big-white</title><g id="SendPulse_copy" data-name="SendPulse copy" style="isolation:isolate"><g id="SendPulse_copy-2" data-name="SendPulse copy"><path d="M44.64,51.6H32.25q-9.69,0-13.5-2.44t-3.81-7.79V29.73q0-6.92,4.84-9.83T39.39,17q10,0,27.64,2.67V8.18A242.88,242.88,0,0,0,40.51,6.45q-23.19,0-31.85,5.82T0,30.2v8.18Q0,50.5,6.12,56.71T27.8,62.92H39.87q9.69,0,13.42,2.75T57,74.88V88.09q0,7.4-5.8,9.83t-16.76,2.44q-13.66,0-32.41-3.93v12.74a243.67,243.67,0,0,0,31.45,2.52q19.86,0,29.23-6.21T72.12,82.9V75.51q0-12.42-5.72-18.17T44.64,51.6ZM156.7,38.15q-7.71-5.74-24.38-5.74-17.79,0-25.89,6t-8.1,20v30q0,23.28,35.26,23.28a129.25,129.25,0,0,0,27.8-3.15V97.69q-14.93,3.78-25.89,3.78-11.28,0-17-3.38t-5.72-11.4V75.19h51.63V58.36Q164.41,43.89,156.7,38.15Zm-6.59,27.76H112.78V54q0-7.08,4.61-9.6t14.14-2.52q10,0,14.3,2.6T150.11,54v12Zm83.55-33.51q-23,0-25.26,10.85V34h-14.3v76.14h14.3V55.06q0-7.23,4.29-9.91t16.84-2.67a33.27,33.27,0,0,1,9,1,9.49,9.49,0,0,1,5.08,3,10.75,10.75,0,0,1,2,3.85,19.67,19.67,0,0,1,.48,4.72v55.06h14.3V54.27q0-11-5.72-16.44T233.66,32.41ZM346,22.81q0,6.45.32,19.35H346q-0.16-5-7.86-7.39a57,57,0,0,0-16.76-2.36q-16.84,0-24,5T290.22,54V87.46q0,13.84,6.83,19t23.51,5.19q11.91,0,18.82-3.22t6.91-7.31v9h14V0H346V22.81Zm0,67.33q0,6.45-5.32,9.12t-17.08,2.67q-10.48,0-14.85-2.67t-4.37-9.12V52.54q0-6.45,3.89-8.34t16.6-1.89Q346,42.32,346,52.54v37.6Zm109.37-77a24.12,24.12,0,0,0-8.26-3.3,63.58,63.58,0,0,0-9.77-1.49Q432.7,8,426.35,8H392.67V110.11h15.41V73.3h15.41q18.74,0,29-5.43t10.25-18.48V28.16A18.2,18.2,0,0,0,460.58,19,17.41,17.41,0,0,0,455.34,13.14Zm-7.7,35.47q0,8.34-6.43,11.72t-15.65,3.38H407.92V17.62h17.31q4.13,0,6.91.24a41.61,41.61,0,0,1,6.91,1.34A11.8,11.8,0,0,1,445.41,23a10.79,10.79,0,0,1,2.22,7V48.61Zm94.51,42.79q0,5.82-4.61,8T521,101.62a33.16,33.16,0,0,1-9-1,9.45,9.45,0,0,1-5.08-3,10.69,10.69,0,0,1-2-3.85A19.67,19.67,0,0,1,504.5,89V34h-14.3V89.82q0,11,5.72,16.44t21,5.43q23,0,25.26-10.85v9.28h14.3V34h-14.3V91.39Zm47,18.72h14.3V0h-14.3V110.11Zm79.74-44.67H660q-14.14,0-14.14-7.71V51.28q0-5.19,4.05-7.39t15.49-2.2a153.19,153.19,0,0,1,24,2.2V33.66q-19.54-1.26-23.35-1.26-34.31,0-34.31,17.93v7.08q0,8.65,6.2,13.61t18.27,5h8.74q7.46,0,10.8,2t3.34,6.92v7.71q0,5.66-4.77,7.47T660,101.93q-7.62,0-26.69-3V109.8a197.48,197.48,0,0,0,26.37,1.89q16.2,0,24.86-4.72t8.66-17V83.37Q693.22,65.44,668.91,65.44Zm115.16,9.75V58.36q0-14.47-7.7-20.21T752,32.41q-17.79,0-25.89,6t-8.1,20v30q0,23.28,35.26,23.28a129.26,129.26,0,0,0,27.8-3.15V97.69q-14.93,3.78-25.89,3.78-11.28,0-17-3.38t-5.72-11.4V75.19h51.63ZM732.45,54q0-7.08,4.61-9.6t14.14-2.52q10,0,14.3,2.6T769.78,54v12H732.45V54Z" transform="translate(0 0)" style="fill:#fff;fill-rule:evenodd"/></g></g><g id="pulse-shape" style="isolation:isolate"><g id="pulse-shape-2" data-name="pulse-shape"><path d="M919.58,57.9a11.3,11.3,0,0,0-9.84,5.84H887l-7.16-61H868.49L843.07,94.9,834.9,63.73H805.79v8.71h19.8L837.25,116h11.36l23.27-84.35L877,75.36h11.36V75.27l21.39,0.06a11.3,11.3,0,0,0,9.84,5.84A11.64,11.64,0,0,0,919.58,57.9Z" transform="translate(0 0)" style="fill:#fff;fill-rule:evenodd"/></g></g></svg>